<svg width="174" height="20" viewBox="0 0 174 20" fill="none" xmlns="http://www.w3.org/2000/svg">
<path fill-rule="evenodd" clip-rule="evenodd" d="M145 20V5.98967H140.833V20H145ZM142.918 4.01033C144.108 4.01033 144.947 3.15142 144.947 2.00517C144.947 0.833084 144.108 0 142.918 0C141.727 0 140.888 0.858917 140.888 2.00517C140.888 3.15142 141.728 4.01033 142.918 4.01033ZM7.72083 14.7623C12.3483 14.7623 15 12.3 15 8.03108V8.03008C15 3.97108 12.3483 1.66667 7.72083 1.66667H0V20H4.1075V14.7623H7.72083ZM7.51342 5.09783C9.80083 5.09783 11.1009 6.1195 11.1009 8.162C11.1009 10.2575 9.80083 11.3053 7.51342 11.3053H4.1085V5.09783H7.51342ZM26.6267 14.7623L29.5128 20V19.999H34.1667L30.2929 13.9495C32.5033 12.9018 33.6992 10.8583 33.6992 8.03008C33.6992 3.97108 30.9957 1.66667 26.2376 1.66667H18.3333V20H22.4412V14.7623H26.6267ZM26.2366 11.3053H22.4412V5.09783H26.2366C28.4985 5.09783 29.7987 6.06658 29.7987 8.162C29.7987 10.2575 28.4985 11.3053 26.2366 11.3053ZM47.1183 1.66667L56.0567 13.4523V1.66667H60V20H56.215L47.3033 8.24033V20H43.3333V1.66667H47.1183ZM67.3825 14.116H77.4667L77.4675 14.117C77.8067 9.0585 75.5075 5.83333 70.57 5.83333C66.285 5.83333 63.3333 8.75017 63.3333 12.9556C63.3333 17.1609 66.1808 20 70.6742 20C73.2092 20 75.2725 19.0967 76.6833 17.5481L74.5675 15.4321C73.6 16.3867 72.3458 16.9028 71.0133 16.9028C69.2108 16.9028 67.8525 15.8705 67.3825 14.116ZM70.5958 8.74825C72.4508 8.74825 73.6525 9.93525 73.7042 11.7676H67.3033C67.6175 9.93525 68.7408 8.74825 70.5958 8.74825ZM81.57 5.83333L84.6825 15.9711L87.69 5.83333H91.605L94.6658 15.9711L97.725 5.83333H101.667L96.585 20H92.5917L89.5842 10.6524L86.6017 20H82.6083L77.5 5.8595L81.57 5.83333ZM106.861 9.76708C106.861 9.04667 107.533 8.7385 108.463 8.7385L108.463 8.7395C109.624 8.7395 111.173 9.22725 112.697 10.0762L114.064 7.37625C112.515 6.39967 110.554 5.83333 108.643 5.83333C105.622 5.83333 103.171 7.29867 103.171 10.1528C103.171 13.0546 105.739 13.8018 107.807 14.4038C109.203 14.8099 110.372 15.1499 110.372 16.0408C110.372 16.7867 109.624 17.1203 108.617 17.1203C107.095 17.1203 105.237 16.504 103.791 15.3978L102.5 18.0714C104.073 19.3316 106.268 20 108.513 20C111.663 20 114.167 18.5092 114.167 15.6805C114.182 12.7244 111.504 11.9433 109.386 11.3257C108.004 10.9228 106.861 10.5894 106.861 9.76708ZM119.07 5.83333L122.183 15.9711L125.19 5.83333H129.105L132.166 15.9711L135.225 5.83333H139.167L134.085 20H130.092L127.084 10.6524L124.102 20H120.108L115 5.8595L119.07 5.83333ZM158.333 5.83333V9.60983C155.296 9.34942 153.418 10.8853 153.418 13.2552V20H149.167V5.98942H153.418V8.51533C154.44 6.79658 156.124 5.85917 158.333 5.83333ZM163.216 14.116H173.301V14.117C173.64 9.0585 171.341 5.83333 166.403 5.83333C162.118 5.83333 159.167 8.75017 159.167 12.9556C159.167 17.1609 162.014 20 166.508 20C169.043 20 171.107 19.0967 172.517 17.5481L170.401 15.4321C169.434 16.3867 168.179 16.9028 166.847 16.9028C165.045 16.9028 163.687 15.8705 163.216 14.116ZM166.429 8.74825C168.285 8.74825 169.486 9.93525 169.539 11.7676H169.538H163.137C163.451 9.93525 164.573 8.74825 166.429 8.74825Z" fill="#063369"/>
</svg>
