<svg width="24" height="24" viewBox="0 0 24 24" fill="none" xmlns="http://www.w3.org/2000/svg">
<rect width="24" height="24" rx="4" fill="#063369"/>
<path d="M3.50067 15.561H2.28216V8.61443H5.33364C6.79169 8.61443 7.60403 9.61423 7.60403 10.7911C7.60403 11.9679 6.78128 12.9677 5.33364 12.9677H3.50067V15.561ZM6.35428 10.7911C6.35428 10.1245 5.85437 9.68713 5.16701 9.68713H3.50067V11.895H5.16701C5.85437 11.895 6.35428 11.4576 6.35428 10.7911ZM13.9923 15.561H12.5864L11.045 12.9677H9.83691V15.561H8.6184V8.61443H11.6699C13.0446 8.61443 13.9403 9.51008 13.9403 10.7911C13.9403 12.0304 13.1279 12.697 12.2948 12.8323L13.9923 15.561ZM12.6905 10.7911C12.6905 10.1245 12.1906 9.68713 11.5032 9.68713H9.83691V11.895H11.5032C12.1906 11.895 12.6905 11.4576 12.6905 10.7911ZM21.1777 15.561H20.0008L16.3766 10.4995V15.561H15.158V8.61443H16.4078L19.9592 13.5405V8.61443H21.1777V15.561Z" fill="#F5F5F5"/>
</svg>
